<?xml version="1.0" encoding="utf-8"?>
<!-- Generator: Adobe Illustrator 23.0.6, SVG Export Plug-In . SVG Version: 6.00 Build 0)  -->
<svg version="1.1" id="Слой_1" focusable="false"
	 xmlns="http://www.w3.org/2000/svg" xmlns:xlink="http://www.w3.org/1999/xlink" x="0px" y="0px" viewBox="0 0 488 512"
	 style="enable-background:new 0 0 488 512;" xml:space="preserve">
<style type="text/css">
	.st0{fill:#F4B400;}
	.st1{fill:#0F9D58;}
	.st2{fill:#4285F4;}
	.st3{fill:#DB4437;}
</style>
<path class="st0" d="M23,360.62C8.24,328.85,0,293.4,0,256c0-40.88,9.84-79.42,27.28-113.38l76.01,59.48
	c-5.77,16.35-8.99,34.38-8.99,53.89c0,15.09,2.1,29.68,6.02,43.49L23,360.62z"/>
<path class="st1" d="M414.3,443.11C372.69,481.61,315.48,504,248,504c-99.8,0-185.62-58.62-225-143.38l77.33-61.13
	C118.88,364.82,178.16,412.6,248,412.6c40.37,0,70.37-11.9,92.09-28.45L414.3,443.11z"/>
<path class="st2" d="M340.09,384.15c31.12-23.71,45.29-56.96,48.71-78.45H248v-85.3h236.1c2.3,12.7,3.9,24.9,3.9,41.4v0
	c0,74.78-27.06,138.16-73.7,181.31L340.09,384.15z"/>
<path class="st3" d="M103.29,202.11c7.21-20.41,18.4-38.21,32.3-53c54.53-58.01,150.69-69.7,211.21-11.31l67.5-64.9
	C371,32.5,314.8,8,248,8C176.93,8,112.95,37.73,67.78,85.46c-16.05,16.96-29.73,36.19-40.5,57.17L103.29,202.11z"/>
</svg>
